<svg
    className="w-6 h-6"
    viewBox="-2 -4 24 24"
    xmlns="http://www.w3.org/2000/svg"
    preserveAspectRatio="xMinYMin"
    className="jam jam-settings-alt"
>
    <defs>
        <linearGradient
            id="grad1"
            x1="0%"
            y1="0%"
            x2="100%"
            y2="0%"
        >
            <stop offset="0%" stopColor="#285313" />
            <stop offset="100%" stopColor="#a8e063" />
        </linearGradient>
    </defs>

    <path
        d="M9 12V1a1 1 0 1 1 2 0v11h1a1 1 0 0 1 0 2h-1v1a1 1 0 0 1-2 0v-1H8a1 1 0 0 1 0-2h1zm7-10V1a1 1 0 0 1 2 0v1h1a1 1 0 0 1 0 2h-1v11a1 1 0 0 1-2 0V4h-1a1 1 0 0 1 0-2h1zM4 5h1a1 1 0 1 1 0 2H4v8a1 1 0 0 1-2 0V7H1a1 1 0 1 1 0-2h1V1a1 1 0 1 1 2 0v4z"
        fill="url(#grad1)"
    />
</svg>